<svg width="20" height="15" viewBox="0 0 20 15" fill="none" xmlns="http://www.w3.org/2000/svg">
<path d="M2.7418 0.834961C2.2722 0.834961 1.82184 1.02151 1.48979 1.35356C1.15774 1.68561 0.971192 2.13597 0.971192 2.60557V13.2292C0.971088 13.4618 1.01681 13.6921 1.10575 13.907C1.19468 14.1219 1.32509 14.3172 1.48951 14.4817C1.65394 14.6462 1.84916 14.7767 2.06403 14.8657C2.2789 14.9548 2.50921 15.0006 2.7418 15.0006H18.087C18.5566 15.0006 19.007 14.814 19.3391 14.482C19.6711 14.1499 19.8576 13.6996 19.8576 13.23V2.60635C19.8576 2.13676 19.6711 1.6864 19.3391 1.35435C19.007 1.02229 18.5566 0.835748 18.087 0.835748H2.7418V0.834961ZM10.8299 3.85758L13.3914 6.41906C13.4989 6.53042 13.5583 6.67953 13.5569 6.83428C13.5554 6.98903 13.4933 7.13703 13.3838 7.24641C13.2743 7.35579 13.1263 7.41779 12.9715 7.41906C12.8168 7.42033 12.6677 7.36077 12.5565 7.25321L11.003 5.6998V11.5601C11.003 11.7166 10.9409 11.8668 10.8302 11.9774C10.7195 12.0881 10.5694 12.1503 10.4128 12.1503C10.2563 12.1503 10.1062 12.0881 9.99551 11.9774C9.88483 11.8668 9.82265 11.7166 9.82265 11.5601V5.70137L8.27238 7.25321C8.21796 7.3096 8.15286 7.3546 8.08087 7.38556C8.00887 7.41653 7.93144 7.43284 7.85307 7.43356C7.7747 7.43428 7.69698 7.41938 7.62443 7.38974C7.55189 7.3601 7.48597 7.31631 7.43053 7.26092C7.37509 7.20553 7.33123 7.13965 7.30152 7.06713C7.27181 6.99461 7.25684 6.9169 7.25748 6.83854C7.25813 6.76017 7.27437 6.68272 7.30527 6.6107C7.33617 6.53867 7.3811 6.47353 7.43744 6.41906L9.99498 3.85837C10.0498 3.80352 10.1149 3.76001 10.1865 3.73033C10.2581 3.70065 10.3349 3.68537 10.4125 3.68537C10.49 3.68537 10.5668 3.70065 10.6384 3.73033C10.71 3.76001 10.7751 3.80352 10.8299 3.85837V3.85758Z" fill="white"/>
</svg>
