<svg width="70" height="69" viewBox="0 0 70 69" fill="none" xmlns="http://www.w3.org/2000/svg">
<g clip-path="url(#clip0_312_12367)">
<path d="M68.6863 33.1168H68.6075L66.1137 20.9423C66.3515 20.8537 66.5509 20.6835 66.6773 20.4614C66.8036 20.2393 66.8488 19.9795 66.8051 19.7271C66.7613 19.4748 66.6313 19.246 66.4377 19.0807C66.2441 18.9153 65.9993 18.8239 65.7459 18.8223C65.5538 18.8224 65.3654 18.8759 65.2013 18.9768L55.3886 7.24667C55.5936 7.04911 55.7125 6.77735 55.7192 6.49116C55.7259 6.20497 55.6199 5.92781 55.4244 5.72064C55.229 5.51347 54.9602 5.39327 54.677 5.38648C54.3939 5.37969 54.1197 5.48686 53.9148 5.68442C53.8282 5.7672 53.7563 5.86439 53.7022 5.97176L43.8322 1.45161C43.8709 1.34066 43.8911 1.22397 43.8919 1.10632C43.8911 0.831938 43.7882 0.567909 43.6037 0.366603C43.4193 0.165297 43.1667 0.041419 42.8962 0.019538C42.6256 -0.00234297 42.3568 0.0793716 42.143 0.248475C41.9292 0.417578 41.7862 0.661717 41.7421 0.932471H35.7394C35.5312 0.755998 35.2682 0.659275 34.9965 0.659275C34.7248 0.659275 34.4618 0.755998 34.2537 0.932471H28.239C28.2213 0.786865 28.1747 0.646358 28.1021 0.519349C28.0295 0.392339 27.9323 0.281434 27.8163 0.19326C27.7003 0.105086 27.5679 0.0414538 27.4271 0.00616616C27.2862 -0.0291215 27.1397 -0.0353403 26.9964 -0.0121187C26.8532 0.0111029 26.716 0.0632883 26.5931 0.141319C26.4702 0.219349 26.3641 0.321623 26.2812 0.442028C26.1983 0.562434 26.1403 0.698499 26.1105 0.842092C26.0808 0.985686 26.0801 1.13386 26.1083 1.27776C26.1159 1.33697 26.1295 1.39523 26.1489 1.45161L16.2956 5.97176C16.1661 5.7172 15.9418 5.5251 15.6721 5.4377C15.4024 5.35031 15.1095 5.37478 14.8576 5.50574C14.6058 5.6367 14.4158 5.86342 14.3293 6.13602C14.2429 6.40862 14.2671 6.70478 14.3966 6.95934C14.4519 7.06593 14.5237 7.16292 14.6092 7.24667L4.75357 18.943C4.58946 18.8421 4.40107 18.7886 4.20895 18.7885C3.95553 18.7901 3.71069 18.8815 3.51712 19.0469C3.32356 19.2122 3.19355 19.441 3.14977 19.6933C3.10599 19.9457 3.15121 20.2055 3.27755 20.4276C3.40389 20.6497 3.60333 20.8199 3.84109 20.9085L1.39271 33.124H1.31388C0.960458 33.139 0.626414 33.2914 0.381563 33.5494C0.136711 33.8075 0 34.1512 0 34.5088C0 34.8664 0.136711 35.2101 0.381563 35.4682C0.626414 35.7263 0.960458 35.8787 1.31388 35.8936H1.39271L3.85543 48.0825C3.61766 48.1712 3.41822 48.3414 3.29188 48.5635C3.16554 48.7856 3.12032 49.0454 3.1641 49.2977C3.20788 49.5501 3.33789 49.7789 3.53146 49.9442C3.72502 50.1096 3.96986 50.201 4.22328 50.2026C4.41508 50.2002 4.6029 50.1469 4.7679 50.048L14.6116 61.771C14.4993 61.8793 14.4117 62.011 14.3549 62.1571C14.2982 62.3031 14.2736 62.4599 14.2829 62.6165C14.2921 62.7731 14.3351 62.9258 14.4087 63.0639C14.4824 63.202 14.5849 63.3223 14.7092 63.4162C14.8335 63.5102 14.9766 63.5756 15.1284 63.608C15.2803 63.6404 15.4373 63.6389 15.5886 63.6036C15.7398 63.5684 15.8817 63.5002 16.0042 63.4039C16.1267 63.3075 16.227 63.1854 16.298 63.0459L26.1608 67.5684C26.1231 67.6796 26.1029 67.7962 26.1011 67.9137C26.102 68.1881 26.2049 68.4521 26.3893 68.6535C26.5738 68.8548 26.8263 68.9786 27.0969 69.0005C27.3675 69.0224 27.6363 68.9407 27.8501 68.7716C28.0638 68.6025 28.2069 68.3583 28.2509 68.0876H34.2537C34.4622 68.2632 34.7251 68.3593 34.9965 68.3593C35.268 68.3593 35.5308 68.2632 35.7394 68.0876H41.7421C41.7862 68.3583 41.9292 68.6025 42.143 68.7716C42.3568 68.9407 42.6256 69.0224 42.8962 69.0005C43.1667 68.9786 43.4193 68.8548 43.6037 68.6535C43.7882 68.4521 43.8911 68.1881 43.8919 67.9137C43.8913 67.7961 43.8711 67.6793 43.8322 67.5684L53.7046 63.0362C53.7756 63.1757 53.8759 63.2979 53.9984 63.3942C54.121 63.4905 54.2628 63.5587 54.414 63.5939C54.5653 63.6292 54.7223 63.6307 54.8742 63.5983C55.026 63.566 55.1691 63.5005 55.2934 63.4066C55.4177 63.3126 55.5202 63.1924 55.5939 63.0542C55.6675 62.9161 55.7105 62.7634 55.7198 62.6068C55.729 62.4502 55.7044 62.2934 55.6477 62.1474C55.5909 62.0014 55.5033 61.8696 55.391 61.7613L65.2108 50.0963C65.3758 50.1952 65.5636 50.2485 65.7554 50.2509C66.0089 50.2493 66.2537 50.1579 66.4473 49.9925C66.6408 49.8272 66.7708 49.5984 66.8146 49.346C66.8584 49.0937 66.8132 48.8339 66.6868 48.6118C66.5605 48.3897 66.3611 48.2195 66.1233 48.1308L68.6147 35.8791H68.6935C69.0469 35.8642 69.381 35.7118 69.6258 35.4537C69.8707 35.1956 70.0074 34.8519 70.0074 34.4943C70.0074 34.1368 69.8707 33.793 69.6258 33.535C69.381 33.2769 69.0469 33.1245 68.6935 33.1096L68.6863 33.1168ZM65.6599 21.0099L66.7635 29.9851L63.2497 22.5336C63.473 22.3648 63.6366 22.1279 63.7162 21.8578C63.7958 21.5877 63.7872 21.2988 63.6916 21.0341L64.8262 20.5029C64.9167 20.6471 65.0391 20.768 65.1838 20.856C65.3285 20.944 65.4915 20.9967 65.6599 21.0099ZM60.8491 44.3182L60.6102 35.3503C60.7805 35.3372 60.9428 35.2722 61.0758 35.164C61.2088 35.0559 61.3063 34.9095 61.3555 34.7442H63.1279C63.1279 34.7877 63.147 34.8312 63.159 34.877C63.1709 34.9229 63.1876 34.976 63.2043 35.0243V35.0533C63.2724 35.2264 63.3749 35.3834 63.5056 35.5147C63.6363 35.646 63.7923 35.7486 63.9639 35.8163L63.0419 42.1909L61.3698 45.2744L60.8491 44.3182ZM8.59933 45.2695L6.92726 42.1861L6.01479 35.8091C6.23631 35.7217 6.43089 35.5764 6.57863 35.388C6.72636 35.1996 6.82194 34.975 6.8556 34.737H8.66382C8.68828 34.7916 8.71704 34.844 8.74981 34.894C8.8125 35.0128 8.90207 35.115 9.01125 35.1922C9.12042 35.2694 9.2461 35.3195 9.37803 35.3382L9.13917 44.3133L8.59933 45.2695ZM8.6686 46.0132V45.9963V46.0132ZM9.14633 24.685L9.3852 33.6601C9.25296 33.6779 9.12688 33.7276 9.01756 33.8049C8.90825 33.8822 8.81888 33.9849 8.75698 34.1044C8.7232 34.1537 8.6944 34.2062 8.67099 34.2613H6.87232C6.83938 34.0231 6.74407 33.7981 6.59624 33.6096C6.44841 33.4211 6.25344 33.276 6.03151 33.1892L6.95353 26.805L8.6256 23.7216L9.14633 24.685ZM61.3889 23.736L63.061 26.8195L63.983 33.1941C63.811 33.261 63.6546 33.3634 63.5238 33.4948C63.393 33.6261 63.2907 33.7836 63.2234 33.9571V33.9861C63.2055 34.0342 63.1903 34.0834 63.1781 34.1334C63.1652 34.177 63.1548 34.2213 63.147 34.2662H61.3889C61.3407 34.1004 61.2434 33.9535 61.1102 33.8451C60.977 33.7368 60.8142 33.6722 60.6437 33.6601L60.8826 24.6922L61.3889 23.736ZM61.3197 22.9923H61.3316V23.0092L61.3197 22.9923ZM61.5585 23.4342L61.9598 22.7267C62.1123 22.7867 62.2741 22.8186 62.4376 22.8209H62.4782L62.9344 25.9599L61.5585 23.4342ZM66.4744 34.3H65.8319C65.7992 34.0998 65.7231 33.9094 65.6092 33.7425C65.4952 33.5755 65.3461 33.436 65.1726 33.3341C65.1455 33.3174 65.1176 33.3021 65.089 33.2882C65.0589 33.271 65.0278 33.2557 64.9958 33.2424C64.827 33.1647 64.6438 33.1244 64.4584 33.124H64.3843L63.6247 27.8868L66.785 33.7204C66.6167 33.87 66.5032 34.0724 66.4625 34.2951L66.4744 34.3ZM66.7873 35.302L63.6343 41.1357L64.3939 35.8984H64.4679C64.6533 35.8969 64.8363 35.8566 65.0054 35.7801C65.0365 35.7801 65.0675 35.7487 65.0962 35.7342C65.1248 35.7204 65.1527 35.7051 65.1798 35.6884C65.3529 35.5859 65.5016 35.4463 65.6155 35.2794C65.7294 35.1126 65.8057 34.9224 65.839 34.7225H66.4816C66.5183 34.943 66.6247 35.1455 66.785 35.2996L66.7873 35.302ZM60.8754 23.7843L60.8921 23.1469C60.9462 23.1421 60.9998 23.1324 61.0521 23.1179L61.1501 23.299L60.8754 23.7843ZM61.1143 21.4736V21.4929C61.0257 21.4591 60.9318 21.4419 60.8372 21.4422C60.7693 21.4422 60.7017 21.4519 60.6365 21.4711V21.4277L60.3785 20.853L61.1596 21.1307C61.123 21.2408 61.1005 21.3552 61.0928 21.4711L61.1143 21.4736ZM60.6031 23.1179L60.572 24.3252L57.0678 30.4873L53.5995 26.5418C53.7209 26.391 53.7875 26.2026 53.7882 26.0082C53.7883 25.9263 53.7763 25.8449 53.7524 25.7667L60.0991 22.7388C60.2083 22.9179 60.378 23.0509 60.5768 23.1131L60.6031 23.1179ZM49.1136 52.6148L49.577 52.4506L49.1613 53.6579C49.1196 53.6502 49.0772 53.6461 49.0347 53.6458C48.9794 53.6454 48.9241 53.6511 48.8699 53.6627C48.9811 53.5161 49.0599 53.3472 49.1011 53.1673C49.1423 52.9874 49.1449 52.8006 49.1088 52.6196L49.1136 52.6148ZM48.9702 52.2091C48.8591 52.0003 48.694 51.8259 48.4925 51.7045L51.8128 43.3499L52.1615 43.2871C52.2335 43.4954 52.3812 43.6681 52.5748 43.7701L49.737 51.9169L48.9702 52.2091ZM48.1796 54.5102L46.2687 54.8652L47.0641 53.9814C47.2406 54.0994 47.4425 54.1726 47.6529 54.1949C47.8633 54.2172 48.076 54.1878 48.2728 54.1094C48.2157 54.2209 48.1839 54.3438 48.1796 54.4692L48.1653 54.503L48.1796 54.5102ZM35.8302 57.1035L45.2869 55.3433L39.793 61.474L35.6821 57.6106C35.778 57.4681 35.8295 57.3 35.8302 57.1277C35.8219 57.1189 35.8147 57.1092 35.8087 57.0987L35.8302 57.1035ZM35.7776 56.8234C35.7308 56.6843 35.6484 56.5602 35.5388 56.4637L37.593 53.0687H46.5004C46.5382 53.2944 46.6328 53.5064 46.7751 53.6844L45.6237 54.9811L35.7776 56.8234ZM34.3444 57.6009L30.2335 61.4643L24.7396 55.3336L34.1963 57.0939V57.1084C34.1879 57.2774 34.2285 57.4453 34.3134 57.5913L34.3444 57.6009ZM34.2513 56.8234L24.4267 54.9907L23.2634 53.6941C23.4056 53.516 23.5002 53.304 23.5381 53.0784H32.4454L34.4686 56.4588C34.3594 56.5547 34.277 56.6779 34.2298 56.8162L34.2513 56.8234ZM21.8302 54.4668C21.8259 54.3414 21.794 54.2185 21.737 54.107C21.9338 54.1854 22.1464 54.2147 22.3568 54.1925C22.5672 54.1702 22.7692 54.097 22.9457 53.979L23.7411 54.8628L21.8302 54.5078V54.4668ZM21.1494 53.6579C21.0535 53.6362 20.9539 53.6362 20.858 53.6579L20.4424 52.4506L20.9058 52.6148C20.8905 52.6943 20.8825 52.7752 20.8819 52.8562C20.8766 53.1406 20.9602 53.4195 21.1207 53.653L21.1494 53.6579ZM21.0467 52.2091L20.2608 51.9314L17.4374 43.7604C17.6309 43.6584 17.7787 43.4857 17.8507 43.2775L18.1994 43.3403L21.5196 51.6948C21.3126 51.817 21.1425 51.994 21.0276 52.2067L21.0467 52.2091ZM20.9034 16.3956L20.44 16.5598L20.8556 15.3525C20.8978 15.3549 20.94 15.3549 20.9822 15.3525C21.0374 15.3505 21.0925 15.3448 21.147 15.3356C20.938 15.6409 20.8448 16.012 20.8843 16.3811L20.9034 16.3956ZM21.0467 16.8013C21.1592 17.0091 21.324 17.1832 21.5244 17.3059L18.2042 25.6605L17.8554 25.7233C17.785 25.5141 17.6368 25.3409 17.4422 25.2403L20.2752 17.0693L21.0467 16.8013ZM21.8469 14.4905L23.7578 14.1356L22.9624 15.0193C22.7864 14.9002 22.5844 14.8263 22.3738 14.804C22.1631 14.7817 21.9503 14.8117 21.7537 14.8913C21.8102 14.7796 21.842 14.6569 21.8469 14.5316L21.8612 14.4977L21.8469 14.4905ZM34.1939 11.9069L24.7372 13.6671L30.2311 7.53643L34.342 11.3998C34.2455 11.5419 34.1938 11.7103 34.1939 11.8827C34.1939 11.8827 34.1748 11.8996 34.1748 11.9045L34.1939 11.9069ZM34.2465 12.187C34.2946 12.3254 34.3768 12.4493 34.4854 12.5467L32.4287 15.9393H23.5214C23.4844 15.7133 23.3898 15.5011 23.2467 15.3235L24.4099 14.0269L34.2465 12.187ZM35.6797 11.4095L39.7906 7.54609L45.2845 13.6768L35.8302 11.9165V11.902C35.8307 11.7243 35.7755 11.551 35.6725 11.407L35.6797 11.4095ZM35.7728 12.187L45.5975 14.0197L46.7607 15.3163C46.6165 15.4959 46.5217 15.7108 46.486 15.9393H37.5787L35.5244 12.5443C35.6318 12.4487 35.7139 12.3276 35.7633 12.1918L35.7728 12.187ZM48.1939 14.5436C48.1989 14.669 48.2307 14.7917 48.2871 14.9034C48.0905 14.8237 47.8777 14.7938 47.6671 14.8161C47.4565 14.8384 47.2544 14.9123 47.0784 15.0314L46.283 14.1476L48.1939 14.5026V14.5436ZM48.8747 15.3525C48.9292 15.3617 48.9843 15.3674 49.0395 15.3694C49.0817 15.3719 49.124 15.3719 49.1661 15.3694L49.5818 16.5767L49.1184 16.4125C49.1548 16.2315 49.1523 16.0447 49.1111 15.8647C49.0699 15.6848 48.9909 15.5158 48.8795 15.3694L48.8747 15.3525ZM48.9774 16.8013L49.7633 17.079L52.5867 25.25C52.3921 25.3506 52.2439 25.5238 52.1735 25.7329L51.8247 25.6701L48.4901 17.3156C48.6919 17.1881 48.8567 17.009 48.9679 16.7965L48.9774 16.8013ZM55.5367 33.1796C55.297 33.0898 55.0353 33.0788 54.7891 33.1482L53.4681 29.8281L53.191 26.8316C53.2757 26.8079 53.3562 26.7712 53.4299 26.7229L56.9245 30.7384L55.5367 33.1796ZM57.2351 31.0934L59.8148 34.0488L59.7336 34.2444H56.4253C56.371 33.9101 56.1935 33.609 55.9284 33.4017L57.2351 31.0934ZM54.0223 33.6842C53.9573 33.6634 53.8898 33.652 53.8216 33.6504L53.6138 31.3952L54.3806 33.3269C54.2365 33.4193 54.1123 33.54 54.0151 33.6818L54.0223 33.6842ZM54.3782 35.6811L53.6114 37.6128L53.8193 35.3576C53.8872 35.3538 53.9544 35.3424 54.0199 35.3237C54.1137 35.4641 54.2328 35.5853 54.371 35.6811H54.3782ZM53.2675 30.5114L53.5661 33.6842C53.4353 33.7214 53.3156 33.7903 53.2174 33.885C53.1191 33.9797 53.0453 34.0973 53.0023 34.2275H47.088C47.059 34.1402 47.0154 34.0585 46.959 33.9861L52.0421 27.4401L53.2675 30.5114ZM34.0626 33.4935C33.8647 33.6889 33.7327 33.9424 33.6852 34.2179L24.4697 34.2299C24.3933 34.0704 24.2698 33.9387 24.1161 33.8533L27.4865 24.9047C27.6632 24.9522 27.8504 24.9394 28.0192 24.8685L34.0626 33.4935ZM28.3799 24.5594C28.4609 24.4468 28.5134 24.3158 28.5328 24.1779H41.4746C41.494 24.3158 41.5465 24.4468 41.6275 24.5594L35.5483 33.2279C35.3775 33.1483 35.1917 33.1072 35.0037 33.1071H34.987C34.7989 33.1072 34.6131 33.1483 34.4424 33.2279L28.3799 24.5594ZM24.4649 34.7853H33.6804C33.7283 35.0606 33.8603 35.3139 34.0578 35.5097L28.0144 44.1467C27.8462 44.0734 27.6582 44.0606 27.4818 44.1105L24.1114 35.1765C24.2664 35.0862 24.3899 34.9495 24.4649 34.7853ZM34.4447 35.7753C34.6162 35.8526 34.8016 35.8937 34.9894 35.896H35.0061C35.1939 35.8937 35.3792 35.8526 35.5507 35.7753L41.6155 44.4317C41.5337 44.5438 41.4811 44.675 41.4627 44.8132H28.5256C28.5071 44.675 28.4546 44.5438 28.3727 44.4317L34.4447 35.7753ZM35.9377 35.5097C36.1351 35.3139 36.2671 35.0606 36.3151 34.7853H45.49C45.557 34.9731 45.6861 35.1317 45.8554 35.2344L42.5113 44.1129C42.3342 44.0618 42.145 44.0746 41.9762 44.1491L35.9377 35.5097ZM45.4923 34.2154L36.3079 34.2034C36.2604 33.9279 36.1284 33.6744 35.9305 33.479L41.9714 24.8395C42.1446 24.9135 42.3376 24.9255 42.5185 24.8733L45.8626 33.7518C45.6877 33.856 45.5562 34.0207 45.4923 34.2154ZM42.3059 23.2024C42.2028 23.2023 42.1007 23.2219 42.0049 23.2604L37.8414 16.3787H46.4765C46.5234 16.6529 46.6526 16.9058 46.8467 17.1031L42.5471 23.2362C42.4697 23.213 42.389 23.2024 42.3082 23.2048L42.3059 23.2024ZM41.7827 23.3908C41.6156 23.522 41.5045 23.713 41.4722 23.9244H28.5256C28.4933 23.713 28.3822 23.522 28.2151 23.3908L32.4693 16.3884H37.5261L41.7827 23.3908ZM28.0001 23.2628C27.8271 23.1921 27.6348 23.1861 27.4579 23.2459L23.1702 17.1128C23.3651 16.916 23.4945 16.6629 23.5405 16.3884H32.1755L28.0001 23.2628ZM27.2572 24.7912L23.8868 33.747C23.8289 33.7333 23.7695 33.7268 23.7101 33.7277C23.5549 33.7276 23.4027 33.7711 23.2705 33.8533L18.08 27.1527L18.5935 25.8585L26.8942 24.3276C26.9551 24.519 27.0801 24.683 27.2477 24.7912H27.2572ZM23.7005 35.2755C23.763 35.2745 23.8254 35.268 23.8868 35.2561L27.2596 44.2119C27.0898 44.3178 26.9629 44.4813 26.9013 44.6731L18.6007 43.1423L18.0871 41.848L23.2658 35.1475C23.3971 35.2279 23.547 35.272 23.7005 35.2755ZM27.4483 45.7597C27.6256 45.817 27.8171 45.8111 27.9906 45.7428L32.154 52.6196H23.519C23.4741 52.3448 23.3445 52.0913 23.1487 51.8952L27.4483 45.7597ZM28.2151 45.6124C28.3813 45.4803 28.4922 45.2898 28.5256 45.0788H41.4722C41.5057 45.2898 41.6165 45.4803 41.7827 45.6124L37.5285 52.6148H32.4669L28.2151 45.6124ZM42.0073 45.7428C42.1808 45.8111 42.3722 45.817 42.5495 45.7597L46.8491 51.8928C46.6541 52.0894 46.5247 52.3427 46.4789 52.6172H37.8438L42.0073 45.7428ZM42.7573 44.2143L46.1015 35.3334C46.2177 35.3623 46.3387 35.3653 46.4562 35.3424C46.5738 35.3195 46.685 35.2711 46.7822 35.2006L51.9322 41.8504L51.4163 43.1423L43.1085 44.6731C43.0467 44.4807 42.9187 44.3171 42.7478 44.2119L42.7573 44.2143ZM46.2949 33.648C46.2297 33.6477 46.1647 33.6558 46.1015 33.6722L42.7573 24.7912C42.9265 24.6847 43.0534 24.5215 43.1156 24.33L51.4163 25.8609L51.9298 27.1551L46.7727 33.8074C46.6301 33.7035 46.4587 33.6478 46.283 33.648H46.2949ZM52.355 26.6118L52.2475 26.7495L51.9322 25.9575L52.1114 25.9913V26.013C52.1118 26.2355 52.1974 26.4492 52.3502 26.6094L52.355 26.6118ZM52.355 27.0296L52.558 26.7664C52.6706 26.8255 52.7944 26.8593 52.9211 26.8654L53.1146 28.9444L52.355 27.0296ZM51.2968 25.5542L43.1586 24.0644C43.158 23.8523 43.0788 23.6481 42.9365 23.4922L47.217 17.3687C47.4844 17.5013 47.7885 17.5379 48.0793 17.4725L51.2968 25.5542ZM37.2634 15.9393H32.7488L34.7242 12.6868C34.8133 12.7253 34.9092 12.7452 35.0061 12.7452C35.103 12.7452 35.1989 12.7253 35.2879 12.6868L37.2634 15.9393ZM21.9281 17.4725C22.2188 17.5391 22.5233 17.5025 22.7904 17.3687L27.0709 23.4922C26.9286 23.6481 26.8494 23.8523 26.8488 24.0644L18.7034 25.5542L21.9281 17.4725ZM17.8913 25.9889L18.0704 25.9551L17.7551 26.7471L17.6476 26.6094C17.8024 26.4486 17.8883 26.2326 17.8865 26.0082C17.889 26.002 17.8906 25.9955 17.8913 25.9889ZM17.4374 26.7615L17.6428 27.0247L16.8808 28.9347L17.0743 26.8557C17.2007 26.8514 17.3246 26.8192 17.4374 26.7615ZM17.9581 27.4328L23.0675 34.0054C23.0124 34.0667 22.9666 34.1358 22.9314 34.2106H16.9453C16.9057 34.091 16.8401 33.9818 16.7533 33.8911C16.6665 33.8005 16.5607 33.7306 16.4437 33.6866L16.7399 30.4945L17.9581 27.4328ZM16.5249 29.8233L15.204 33.1434C14.9577 33.0739 14.6961 33.0849 14.4563 33.1747L13.0685 30.7336L16.5632 26.7181C16.6371 26.7659 16.7176 26.8025 16.802 26.8267L16.5249 29.8233ZM16.1714 33.648H16.138C16.0769 33.6461 16.0158 33.6526 15.9564 33.6673C15.8642 33.5329 15.7485 33.4167 15.6149 33.3245L16.3816 31.3928L16.1714 33.648ZM16.3792 37.608L15.6125 35.6763C15.7458 35.5829 15.8622 35.4669 15.9564 35.3334C16.0162 35.3458 16.077 35.3523 16.138 35.3527H16.1714L16.3792 37.608ZM14.0598 33.3921C13.7948 33.5994 13.6173 33.9005 13.563 34.2348H10.2977C10.2762 34.1589 10.244 34.0865 10.2021 34.0199L12.7652 31.074L14.0598 33.3921ZM10.011 33.8363C9.90944 33.7513 9.78895 33.6925 9.6599 33.6649L9.44969 25.2355L12.6218 30.8471L10.011 33.8363ZM9.6599 35.3382C9.78822 35.3085 9.90825 35.2499 10.011 35.1668L12.6218 38.1537L9.44969 43.7676L9.6599 35.3382ZM10.195 34.9664C10.236 34.8993 10.2681 34.827 10.2905 34.7515L13.5606 34.766C13.616 35.0998 13.7933 35.4006 14.0574 35.6087L12.758 37.9122L10.195 34.9664ZM14.4587 35.826C14.6989 35.9134 14.9599 35.9244 15.2064 35.8574L16.5321 39.1799L16.8092 42.1764C16.724 42.1985 16.6432 42.2353 16.5703 42.2851L13.0781 38.2696L14.4587 35.826ZM16.7328 38.4821L16.4366 35.2899C16.5531 35.2453 16.6585 35.1751 16.7452 35.0846C16.8319 34.994 16.8978 34.8852 16.9382 34.766H22.9314C22.9679 34.84 23.0136 34.909 23.0675 34.9712L17.9677 41.5703L16.7328 38.4821ZM17.6452 42.3841L17.7527 42.2464L18.068 43.0384L17.8889 43.0046V42.9829C17.8878 42.7626 17.8021 42.5514 17.65 42.3937L17.6452 42.3841ZM17.6452 41.9663L17.4374 42.2295C17.3253 42.1692 17.2012 42.1354 17.0743 42.1305L16.8808 40.0516L17.6452 41.9663ZM18.7034 43.4296L26.844 44.9146C26.8455 45.1265 26.9246 45.3304 27.0661 45.4868L22.7809 51.632C22.5141 51.4971 22.2092 51.4604 21.9186 51.5282L18.7034 43.4296ZM32.7392 53.0542H37.2634L35.2879 56.3067C35.1991 56.2673 35.1031 56.247 35.0061 56.247C34.9091 56.247 34.8131 56.2673 34.7242 56.3067L32.7392 53.0542ZM48.0745 51.521C47.7839 51.4532 47.4789 51.4899 47.2122 51.6248L42.9317 45.5013C43.0732 45.3449 43.1523 45.141 43.1538 44.9291L51.292 43.4393L48.0745 51.521ZM52.1018 43.0046L51.9226 43.0384L52.2403 42.2585L52.3478 42.3961C52.2708 42.4756 52.2101 42.5695 52.1691 42.6727C52.1281 42.7759 52.1077 42.8862 52.109 42.9974C52.1081 43.007 52.1081 43.0167 52.109 43.0264L52.1018 43.0046ZM52.5533 42.2295L52.3502 41.9663L53.1122 40.0516L52.9187 42.1305C52.7892 42.1361 52.663 42.1734 52.5509 42.2392L52.5533 42.2295ZM52.0325 41.5583L46.9518 35.0147C47.0072 34.9416 47.0508 34.8601 47.0808 34.7732H52.988C53.0316 34.903 53.1057 35.0202 53.2039 35.1148C53.302 35.2094 53.4214 35.2786 53.5517 35.3165L53.2675 38.4869L52.0325 41.5583ZM53.4657 39.1678L54.7867 35.8477C55.0332 35.9147 55.2941 35.9038 55.5343 35.8163L56.9221 38.2575L53.4275 42.273C53.3549 42.2228 53.274 42.186 53.1886 42.1643L53.4657 39.1678ZM55.9308 35.599C56.195 35.3909 56.3723 35.0902 56.4277 34.7563L59.7312 34.7418L59.8124 34.9374L57.2351 37.9122L55.9308 35.599ZM59.9916 35.1282C60.0872 35.212 60.1996 35.2738 60.3212 35.3093L60.5314 43.7604L57.3617 38.1537L59.9916 35.1282ZM60.3212 33.6794C60.1988 33.7128 60.0859 33.7749 59.9916 33.8605L57.364 30.8447L60.5362 25.2331L60.3212 33.6794ZM60.1946 21.7198L57.1228 19.6916L59.7933 20.6405L59.8077 20.6695L60.2448 21.6691C60.2304 21.6909 60.2113 21.7054 60.197 21.7247L60.1946 21.7198ZM60.0346 21.9758C59.9703 22.1368 59.9578 22.3142 59.9987 22.4829L53.6544 25.5349C53.5692 25.3953 53.4442 25.2849 53.2959 25.2181C53.1476 25.1514 52.9829 25.1313 52.8232 25.1607L50.0786 17.1925L55.9691 19.2763L60.0346 21.9758ZM49.8994 16.6637L49.4217 15.2463C49.5028 15.2012 49.5769 15.1442 49.6415 15.0773L54.5144 18.3201L49.8994 16.6637ZM49.2593 13.6768C49.1502 13.6409 49.0348 13.6295 48.921 13.6433C48.8071 13.657 48.6976 13.6957 48.6 13.7565L42.4444 6.078C42.5156 5.99681 42.5722 5.90365 42.6116 5.80274L53.1218 7.27082C53.1316 7.49138 53.2159 7.70187 53.3606 7.86723L52.9952 8.38878L49.2593 13.6768ZM53.1743 6.94968L42.6642 5.46711C42.6643 5.28206 42.6099 5.10118 42.5077 4.94761C42.4056 4.79405 42.2605 4.67478 42.0909 4.60509L42.227 4.03283L42.2796 3.86622L51.5954 6.06593L53.1863 6.92795L53.1743 6.94968ZM42.1864 6.27359L48.3635 13.952C48.2985 14.0283 48.2475 14.1159 48.213 14.2104L45.9319 13.7854L40.0557 7.26599L41.1736 6.21081C41.3151 6.32438 41.487 6.39245 41.6671 6.40622C41.8472 6.42 42.0273 6.37884 42.184 6.28807L42.1864 6.27359ZM41.8018 4.54714H41.7493C41.6104 4.54824 41.4737 4.58146 41.3495 4.64424C41.2252 4.70702 41.1169 4.7977 41.0327 4.90933L36.7856 2.57682L41.9714 3.80344L41.8018 4.54714ZM39.867 7.04143L38.5986 5.6313H40.8464C40.8666 5.75946 40.913 5.88198 40.9825 5.99108L39.867 7.04143ZM39.5804 7.31428L35.4767 11.2042C35.3413 11.0941 35.1727 11.034 34.9989 11.034C34.8251 11.034 34.6566 11.0941 34.5212 11.2042L30.4103 7.31187L31.9151 5.62164H38.0779L39.5804 7.31428ZM30.1213 7.04143L29.0081 5.99591C29.0777 5.88681 29.124 5.76429 29.1443 5.63613H31.3872L30.1213 7.04143ZM28.2366 6.40639C28.4413 6.40452 28.6395 6.33403 28.8003 6.20598L29.9182 7.26116L24.0421 13.7806L21.7657 14.2056C21.7322 14.1106 21.6811 14.0229 21.6152 13.9472L27.7947 6.28083C27.9301 6.35948 28.0828 6.40265 28.239 6.40639H28.2366ZM28.0121 3.80344L33.2026 2.57682L28.958 4.90209C28.8738 4.79045 28.7654 4.69977 28.6412 4.63699C28.517 4.57421 28.3802 4.541 28.2414 4.5399H28.1864L28.0121 3.80344ZM27.3122 5.47435L16.802 6.95692V6.92312L18.3929 6.0611L27.7087 3.86622L27.7493 4.04007L27.8855 4.61234C27.7156 4.68271 27.5704 4.80288 27.4687 4.95737C27.3669 5.11186 27.3132 5.29359 27.3146 5.47918L27.3122 5.47435ZM16.8641 7.28289L27.3743 5.81481C27.4146 5.91526 27.4711 6.00827 27.5415 6.09008L21.3859 13.7661C21.2883 13.7053 21.1788 13.6667 21.0649 13.6529C20.9511 13.6392 20.8356 13.6506 20.7266 13.6864L17.0122 8.39844L16.6468 7.87689C16.7857 7.71053 16.8634 7.50062 16.8665 7.28289H16.8641ZM20.0888 16.6806L15.4668 18.3321L20.3564 15.0942C20.421 15.1611 20.495 15.2181 20.5761 15.2632L20.0888 16.6806ZM19.9097 17.1973L17.1651 25.1655C17.0054 25.1365 16.8408 25.1567 16.6925 25.2234C16.5443 25.2902 16.4194 25.4004 16.3338 25.5398L9.98953 22.4877C10.0044 22.4244 10.0124 22.3596 10.0134 22.2945C10.013 22.187 9.99274 22.0806 9.9537 21.9806L14.0144 19.2883L19.9097 17.1973ZM9.79366 21.7343L9.7435 21.6836L10.1806 20.684L10.195 20.655L12.8655 19.7061L9.79366 21.7343ZM9.87965 22.7581L16.2431 25.7764C16.2192 25.8546 16.2071 25.936 16.2072 26.0178C16.2079 26.2123 16.2745 26.4007 16.3959 26.5515L12.9372 30.5018L9.43297 24.3397L9.40192 23.1324C9.60246 23.0682 9.77254 22.9315 9.87965 22.7485V22.7581ZM9.3637 21.4325V21.476C9.29851 21.4567 9.23096 21.447 9.16305 21.447C9.06841 21.4467 8.97451 21.4639 8.88597 21.4977V21.4808C8.88546 21.3609 8.8694 21.2415 8.83819 21.1259L9.61929 20.8482L9.3637 21.4325ZM9.12483 23.7916L8.85014 23.3087L8.94807 23.1276C9.00044 23.1421 9.05401 23.1518 9.10811 23.1565L9.12483 23.7916ZM5.54183 33.112C5.21809 33.1134 4.90589 33.2337 4.66334 33.4505C4.42078 33.6672 4.2644 33.9657 4.22328 34.2903H3.53534C3.50063 34.0629 3.39025 33.8542 3.22243 33.6987L6.38264 27.865L5.62304 33.1023C5.59765 33.1053 5.572 33.1053 5.54661 33.1023L5.54183 33.112ZM6.37547 41.143L3.22004 35.2996C3.38696 35.1434 3.49716 34.9351 3.53296 34.708H4.22089C4.26046 35.035 4.41675 35.3361 4.66041 35.5549C4.90407 35.7736 5.21834 35.8949 5.54422 35.896H5.61827L6.37547 41.143ZM7.06819 25.972L7.52443 22.833H7.56503C7.72859 22.8309 7.89042 22.799 8.04277 22.7388L8.44406 23.4463L7.06819 25.972ZM6.4973 27.0127L2.95012 33.5321C2.91907 33.5176 2.88802 33.508 2.85457 33.4959L3.09344 31.202L7.10641 22.7509L6.4973 27.0127ZM2.9549 35.4735L6.50207 41.9929L7.12313 46.2619L3.11016 37.8108L2.87129 35.5169C2.89479 35.4997 2.92051 35.4859 2.94773 35.4759L2.9549 35.4735ZM7.07058 43.036L8.44645 45.5641L8.04516 46.2716C7.89347 46.2091 7.7312 46.1772 7.56742 46.1774H7.52681L7.07058 43.036ZM9.12961 45.2092L9.11289 45.8466C9.0585 45.849 9.00468 45.8587 8.95285 45.8756L8.85491 45.6945L9.12961 45.2092ZM8.89075 47.5272V47.5103C8.97991 47.5417 9.07341 47.5588 9.16783 47.561C9.23586 47.5584 9.30329 47.547 9.36848 47.5272V47.5706L9.62646 48.1453L8.83819 47.8676C8.86993 47.7569 8.88758 47.6425 8.89075 47.5272ZM9.40192 45.8804L9.43297 44.6731L12.9372 38.511L16.3864 42.4565C16.3024 42.563 16.2454 42.6886 16.2205 42.8224C16.1955 42.9563 16.2032 43.0942 16.2431 43.2244L9.88682 46.2595C9.77878 46.0804 9.60837 45.9486 9.40909 45.8901L9.40192 45.8804ZM9.79366 47.2857L12.8655 49.314L10.1997 48.3651L10.1854 48.3361L9.74828 47.3292C9.765 47.3123 9.79366 47.2857 9.79366 47.2857ZM9.95131 47.0298C9.98993 46.9297 10.0102 46.8233 10.011 46.7159C10.0103 46.6508 10.0023 46.586 9.98714 46.5227L16.3362 43.4658C16.4224 43.6045 16.5475 43.7141 16.6955 43.7808C16.8436 43.8474 17.0078 43.8681 17.1675 43.8401L19.9121 51.8083L14.024 49.7197L9.95131 47.0298ZM20.0864 52.3419L20.5642 53.7593C20.482 53.8027 20.4077 53.8599 20.3444 53.9283L15.4691 50.6662L20.0864 52.3419ZM20.7338 55.3336C20.843 55.3682 20.9582 55.379 21.0719 55.3652C21.1855 55.3515 21.295 55.3136 21.393 55.2539L27.5487 62.9324C27.4773 63.0135 27.4207 63.1067 27.3814 63.2077L16.8713 61.7396C16.8636 61.5185 16.779 61.3073 16.6324 61.1432L17.0027 60.6095L20.7338 55.3336ZM16.8187 62.039L27.3289 63.5216C27.3294 63.7065 27.3841 63.8871 27.4861 64.0405C27.5882 64.1939 27.733 64.3133 27.9022 64.3836L27.766 64.9558L27.7254 65.1297L18.4096 62.93L16.8187 62.0583V62.039ZM27.8066 62.7175L21.62 55.0559C21.6849 54.9795 21.7359 54.892 21.7705 54.7976L24.0516 55.2225L29.9278 61.742L28.8099 62.7827C28.6689 62.6682 28.4969 62.5995 28.3165 62.5858C28.1362 62.572 27.9559 62.6137 27.7995 62.7054L27.8066 62.7175ZM28.2008 64.4584H28.2533C28.392 64.4563 28.5284 64.4226 28.6524 64.3599C28.7765 64.2972 28.885 64.2071 28.9699 64.0962L33.2026 66.4215L28.0097 65.1973L28.2008 64.4584ZM30.1356 61.9641L31.404 63.3743H29.1419C29.1225 63.2459 29.0761 63.1232 29.0057 63.0145L30.1356 61.9641ZM30.4222 61.6913L34.5284 57.7989C34.6643 57.9078 34.8326 57.9671 35.0061 57.9671C35.1795 57.9671 35.3479 57.9078 35.4838 57.7989L39.5899 61.6913L38.0851 63.3815H31.9223L30.4222 61.6913ZM39.8814 61.9641L40.9921 63.0193C40.9218 63.128 40.8753 63.2507 40.8559 63.3791H38.601L39.8814 61.9641ZM41.7636 62.5968C41.5586 62.5964 41.3596 62.6671 41.1999 62.7972L40.082 61.742L45.9581 55.2225L48.2393 54.7976C48.2748 54.8916 48.3257 54.9789 48.3898 55.0559L42.2151 62.7271C42.0755 62.6412 41.9151 62.5961 41.7517 62.5968H41.7636ZM41.9882 65.1997L36.7856 66.4263L41.0231 64.1011C41.1081 64.2119 41.2166 64.302 41.3406 64.3647C41.4647 64.4274 41.6011 64.4611 41.7397 64.4633H41.8018L41.9882 65.1997ZM42.688 63.5288L53.1982 62.0462V62.08L51.5954 62.9421L42.2796 65.1418L42.239 64.9679L42.1028 64.3956C42.273 64.3254 42.4185 64.2053 42.5206 64.0508C42.6228 63.8964 42.6769 63.7146 42.6761 63.5288H42.688ZM53.1385 61.7203L42.6283 63.1883C42.59 63.0869 42.5333 62.9935 42.4611 62.9131L48.6167 55.2346C48.7148 55.2942 48.8243 55.3322 48.9379 55.3459C49.0516 55.3596 49.1668 55.3489 49.276 55.3143L52.9999 60.6095L53.3654 61.1311C53.2204 61.2934 53.1359 61.5018 53.1265 61.7203H53.1385ZM49.9138 52.3226L54.5263 50.6662L49.6367 53.9018C49.5734 53.8333 49.4991 53.7762 49.4169 53.7327L49.9138 52.3226ZM50.0929 51.8059L52.8375 43.8377C52.9972 43.866 53.1616 43.8455 53.3097 43.7788C53.4577 43.7121 53.5828 43.6023 53.6688 43.4634L60.0202 46.5179C59.9795 46.6865 59.992 46.8639 60.0561 47.0249L55.9953 49.7172L50.0929 51.8059ZM60.1946 47.2857L60.2448 47.3364L59.8077 48.3361L59.7933 48.3651L57.1228 49.314L60.1946 47.2857ZM60.1086 46.2619L53.7619 43.2244C53.8017 43.0924 53.8086 42.9526 53.7819 42.8174C53.7552 42.6821 53.6958 42.5557 53.609 42.4493L57.0559 38.499L60.5601 44.6731L60.5911 45.8804C60.3912 45.9418 60.221 46.076 60.1134 46.2571L60.1086 46.2619ZM60.627 47.5876V47.5272C60.6926 47.544 60.7599 47.5537 60.8276 47.5562C60.922 47.554 61.0155 47.5369 61.1047 47.5055V47.5224C61.1072 47.6391 61.124 47.7551 61.1549 47.8676L60.3738 48.1453L60.627 47.5876ZM60.8658 45.2285L61.1405 45.7114L61.0426 45.8925C60.9908 45.8757 60.9369 45.8659 60.8826 45.8635L60.8658 45.2285ZM62.9249 43.0553L62.4686 46.1943H62.428C62.2643 46.1942 62.102 46.2262 61.9503 46.2885L61.549 45.581L62.9249 43.0553ZM63.4934 42.0122L67.0405 35.4928C67.0716 35.5073 67.1026 35.5169 67.1361 35.529L66.8972 37.8229L62.8843 46.274L63.4934 42.0122ZM67.0453 33.5225L63.4981 27.003L62.8747 22.7364L66.8877 31.1875L67.1265 33.4814C67.1057 33.5052 67.0766 33.5199 67.0453 33.5225ZM64.8 19.2135L64.8239 19.2352L64.8645 19.2835C64.7737 19.4087 64.7113 19.5525 64.6815 19.7048C64.6518 19.8571 64.6556 20.0142 64.6925 20.1648L63.5244 20.684C63.4022 20.5072 63.2395 20.3629 63.0503 20.2633C62.8611 20.1637 62.6509 20.1117 62.4376 20.1117C62.3166 20.1115 62.1964 20.1311 62.0817 20.1697L56.7836 10.3229L63.7561 17.7526L64.8 19.2135ZM59.7527 13.0079L56.2055 9.24114L55.5606 8.03384L59.7527 13.0079ZM54.9395 7.64991L55.231 8.21252L54.844 7.80203C54.8797 7.75388 54.9116 7.70302 54.9395 7.64991ZM55.7899 9.26046L61.6589 20.3677C61.5197 20.4693 61.4012 20.5972 61.3101 20.7443L60.6294 20.5029L60.1516 20.329L54.6577 8.03384L55.7899 9.26046ZM54.0725 8.21252C54.1657 8.21063 54.2582 8.19518 54.3471 8.16664L59.5712 20.1286H59.5377L55.6776 18.7499L49.7896 14.8624C49.8595 14.706 49.8809 14.5318 49.8511 14.3629C49.8213 14.1939 49.7415 14.0381 49.6224 13.9158L53.6831 8.12076C53.805 8.17876 53.9377 8.21003 54.0725 8.21252ZM53.4824 6.52229C53.4295 6.56415 53.3814 6.61194 53.3391 6.66475L52.7659 6.35327L53.4824 6.52229ZM52.7252 5.96935L51.5524 5.69167L48.8532 4.22117L52.7252 5.96935ZM42.6809 2.17599C42.85 2.2034 43.0233 2.18624 43.184 2.12618C43.3447 2.06612 43.4873 1.96518 43.5981 1.83312L44.7925 2.37399L50.3652 5.3995L42.3608 3.50403L42.6809 2.17599ZM41.7684 1.384C41.8306 1.60606 41.9601 1.80282 42.1387 1.94661L42.2055 2.00697H42.2246C42.2695 2.03507 42.3158 2.06086 42.3632 2.08424L42.0574 3.42676L37.3159 2.31121L36.1813 2.00697V1.97075L41.7684 1.384ZM38.613 1.27776L36.1288 1.49507C36.1051 1.42116 36.0739 1.34995 36.0356 1.28259L38.613 1.27776ZM36.0117 2.51887L40.8822 5.17494C40.8654 5.22021 40.8534 5.26715 40.8464 5.31499H38.3239L35.9162 2.65892C35.9508 2.61849 35.9828 2.57573 36.0117 2.53094V2.51887ZM34.3564 2.90038C34.5468 3.02579 34.7692 3.09256 34.9965 3.09256C35.2238 3.09256 35.4462 3.02579 35.6367 2.90038L37.8032 5.31499H32.1898L34.3564 2.90038ZM34.0769 2.65892L31.6691 5.31499H29.1419C29.1351 5.26634 29.123 5.21857 29.1061 5.17252L33.9766 2.51645C34.0055 2.55987 34.0366 2.60178 34.0697 2.64201L34.0769 2.65892ZM33.9598 1.29225C33.9216 1.3596 33.8903 1.43082 33.8667 1.50473L31.3825 1.28742L33.9598 1.29225ZM27.7708 2.01663H27.7899L27.8568 1.95627C28.0354 1.81248 28.1649 1.61572 28.227 1.39366L33.8094 1.978V2.01422L32.6747 2.31846L27.9332 3.43159L27.6275 2.08907C27.6733 2.06649 27.718 2.04151 27.7612 2.01422L27.7708 2.01663ZM26.3973 1.83795C26.5086 1.96914 26.6515 2.06916 26.8122 2.12836C26.9728 2.18757 27.1458 2.20397 27.3146 2.17599L27.6299 3.50403L19.6254 5.39467L25.1982 2.37399L26.3973 1.83795ZM21.1422 4.21151L18.4454 5.67959L17.2726 5.95727L21.1422 4.21151ZM17.2296 6.33637L16.6563 6.64785C16.614 6.59504 16.5659 6.54724 16.513 6.50539L17.2296 6.33637ZM15.923 8.21252C16.0591 8.21082 16.1933 8.18039 16.3171 8.12318L20.3779 13.9182C20.2587 14.0405 20.179 14.1964 20.1491 14.3653C20.1193 14.5343 20.1407 14.7084 20.2107 14.8648L14.313 18.745L10.4529 20.1238H10.4195L15.6459 8.16905C15.7348 8.19759 15.8273 8.21304 15.9206 8.21493L15.923 8.21252ZM15.0607 7.6475C15.086 7.70211 15.1155 7.75459 15.1491 7.80445L14.7621 8.21252L15.0607 7.6475ZM15.3402 8.0435L9.84621 20.3387L9.36848 20.5125L8.68771 20.754C8.59659 20.6069 8.47817 20.479 8.33896 20.3773L14.2079 9.27012L15.3402 8.0435ZM14.4229 8.0435L13.778 9.2508L10.2308 13.0152L14.4229 8.0435ZM5.10709 19.199L5.13098 19.1773L6.2226 17.7551L13.1951 10.3229L7.89945 20.1769C7.78467 20.1383 7.66448 20.1188 7.54353 20.119C7.32898 20.1177 7.11734 20.1692 6.92678 20.2688C6.73623 20.3685 6.57245 20.5135 6.44952 20.6912L5.25519 20.131C5.27373 20.0518 5.28413 19.9709 5.28624 19.8896C5.28629 19.6623 5.21522 19.4409 5.0832 19.2569L5.10709 19.199ZM4.29972 20.9665C4.46831 20.953 4.63145 20.8999 4.77617 20.8114C4.9209 20.723 5.0432 20.6016 5.13337 20.457L6.31337 21.0293C6.21783 21.294 6.20921 21.5828 6.28881 21.8529C6.36841 22.123 6.53198 22.36 6.75527 22.5287L3.22959 29.9851L4.29972 20.9665ZM3.50907 24.0524L2.79247 30.9292L1.79162 33.0516L3.50907 24.0524ZM2.6587 32.1171L2.52255 33.4186C2.42261 33.4178 2.32326 33.4341 2.22874 33.4669C2.18197 33.4211 2.13165 33.3791 2.07826 33.3414L2.6587 32.1171ZM2.22874 35.5121C2.32382 35.5426 2.42281 35.5589 2.52255 35.5604L2.6587 36.8619L2.07587 35.6425C2.12805 35.6057 2.17828 35.5662 2.22635 35.5242L2.22874 35.5121ZM1.78206 35.9298L2.78291 38.0523L3.49951 44.9291L1.78206 35.9298ZM4.29972 48.0029L3.22721 39.0133L6.74094 46.4648C6.51764 46.6335 6.35408 46.8705 6.27448 47.1406C6.19488 47.4107 6.20349 47.6995 6.29904 47.9642L5.13098 48.5099C5.04126 48.3662 4.91917 48.246 4.77469 48.1592C4.63022 48.0723 4.46746 48.0212 4.29972 48.0101V48.0029ZM5.15964 49.7969L5.13575 49.7752L5.09515 49.7269C5.22658 49.5427 5.29758 49.3214 5.29818 49.0943C5.29639 49.0129 5.28598 48.9319 5.26713 48.8528L6.46147 48.3168C6.58441 48.4928 6.7472 48.6366 6.93625 48.7361C7.1253 48.8356 7.33515 48.8881 7.54831 48.889C7.66906 48.8868 7.7889 48.8673 7.90422 48.8311L13.1999 58.6851L6.22738 51.2626L5.15964 49.7969ZM10.2403 55.988L13.7875 59.7548L14.4325 60.9621L10.2403 55.988ZM15.0487 61.3581L14.7502 60.7906L15.1371 61.2011C15.1021 61.2483 15.0725 61.2993 15.0487 61.3532V61.3581ZM14.1984 59.7475L8.32941 48.6403C8.46755 48.5375 8.58577 48.4098 8.67815 48.2636L9.35892 48.5051L9.83666 48.679L15.3306 60.9741L14.1984 59.7475ZM15.9134 60.793C15.82 60.7926 15.7271 60.8081 15.6387 60.8389L10.4219 48.877H10.4553L14.3154 50.2557L20.2035 54.1432C20.1336 54.2996 20.1121 54.4737 20.142 54.6427C20.1718 54.8116 20.2515 54.9675 20.3707 55.0897L16.31 60.8848C16.1888 60.824 16.0558 60.791 15.9206 60.7882L15.9134 60.793ZM16.5034 62.4978C16.5553 62.4546 16.6032 62.407 16.6468 62.3553L17.22 62.6668L16.5034 62.4978ZM17.2606 63.0507L18.4335 63.3284L21.1327 64.7989L17.2606 63.0507ZM27.305 66.832C27.1358 66.8036 26.9622 66.8203 26.8014 66.8804C26.6405 66.9406 26.498 67.042 26.3878 67.1749L25.1934 66.634L19.6278 63.6085L27.6323 65.504L27.305 66.832ZM28.2175 67.624C28.1565 67.4014 28.0268 67.2043 27.8472 67.0614L27.7804 67.001H27.7612C27.7178 66.9706 27.6713 66.9447 27.6227 66.9237L27.9285 65.5812L32.67 66.704L33.8046 67.0083V67.0445L28.2175 67.624ZM31.3729 67.7302L33.8571 67.5129C33.8812 67.5866 33.9124 67.6578 33.9503 67.7254L31.3729 67.7302ZM33.9646 66.4819L29.0941 63.8258C29.1105 63.7796 29.1225 63.7319 29.13 63.6833H31.65L34.0697 66.3611C34.0341 66.3988 34.0014 66.4392 33.9718 66.4819H33.9646ZM35.62 66.0955C35.4298 65.9692 35.2073 65.9019 34.9798 65.9019C34.7523 65.9019 34.5298 65.9692 34.3396 66.0955L32.1731 63.6809H37.7865L35.62 66.0955ZM35.8994 66.3515L38.3072 63.6785H40.8464C40.8538 63.727 40.8658 63.7747 40.8822 63.821L36.0117 66.477C35.9866 66.4365 35.9586 66.3977 35.9281 66.3611L35.8994 66.3515ZM36.0165 67.7181C36.0543 67.6506 36.0855 67.5794 36.1096 67.5057L38.5939 67.723L36.0165 67.7181ZM42.2055 66.9938H42.1864L42.1195 67.0541C41.94 67.197 41.8103 67.3941 41.7493 67.6167L36.167 67.0324V66.9962L37.3016 66.6919L42.0407 65.5691L42.3465 66.9117C42.3009 66.9342 42.257 66.96 42.2151 66.9889L42.2055 66.9938ZM43.579 67.1724C43.4688 67.0396 43.3262 66.9382 43.1654 66.878C43.0045 66.8179 42.831 66.8012 42.6618 66.8296L42.3465 65.5015L50.3509 63.6061L44.7877 66.6267L43.579 67.1724ZM48.8341 64.7989L51.5333 63.3284L52.7061 63.0507L48.8341 64.7989ZM52.7467 62.6644L53.32 62.3529C53.3636 62.4045 53.4115 62.4522 53.4633 62.4953L52.7467 62.6644ZM54.0533 60.7906C53.917 60.79 53.7823 60.8206 53.6592 60.88L49.5985 55.0849C49.7176 54.9627 49.7974 54.8068 49.8272 54.6378C49.8571 54.4689 49.8356 54.2948 49.7657 54.1384L55.6561 50.2509L59.5258 48.8794H59.5592L54.3424 60.8341C54.2537 60.8044 54.161 60.7889 54.0677 60.7882L54.0533 60.7906ZM54.9157 61.3557C54.8914 61.3005 54.8618 61.2479 54.8273 61.1987L55.2142 60.7882L54.9157 61.3557ZM54.6218 60.9621L60.1158 48.6669L60.5935 48.493L61.2743 48.2516C61.3667 48.3977 61.4849 48.5254 61.623 48.6283L55.7541 59.7355L54.6218 60.9621ZM55.5391 60.9621L56.184 59.7548L59.7312 55.988L55.5391 60.9621ZM64.8024 49.8356L64.7785 49.8573L63.7298 51.2505L56.7836 58.6779L62.0793 48.8238C62.1946 48.8601 62.3144 48.8796 62.4352 48.8818C62.6483 48.8808 62.8582 48.8284 63.0472 48.7289C63.2363 48.6293 63.3991 48.4855 63.522 48.3095L64.6925 48.9011C64.6557 49.0518 64.6521 49.2088 64.6818 49.361C64.7115 49.5133 64.7738 49.6571 64.8645 49.7824L64.8024 49.8356ZM65.6408 48.0681C65.4719 48.0804 65.3083 48.133 65.1634 48.2216C65.0185 48.3102 64.8964 48.4321 64.8071 48.5775L63.6701 47.9763C63.7657 47.7115 63.7743 47.4227 63.6947 47.1526C63.6151 46.8825 63.4515 46.6456 63.2282 46.4768L66.742 39.0229L65.6408 48.0681ZM66.4625 44.9508L67.1791 38.074L68.1799 35.9515L66.4625 44.9508ZM67.4514 35.5773C67.5511 35.5758 67.6501 35.5595 67.7452 35.529C67.7932 35.5734 67.8434 35.6153 67.8957 35.6545L67.3152 36.8812L67.4514 35.5773ZM67.3152 32.1316L67.8957 33.3583C67.8423 33.396 67.792 33.438 67.7452 33.4838C67.6507 33.451 67.5513 33.4347 67.4514 33.4355L67.3152 32.1316ZM67.1886 30.9364L66.472 24.0596L68.1991 33.0588L67.1886 30.9364Z" fill="white"/>
</g>
<defs>
<clipPath id="clip0_312_12367">
<rect width="70" height="69" fill="white"/>
</clipPath>
</defs>
</svg>
