<svg width="17" height="13" viewBox="0 0 17 13" fill="none" xmlns="http://www.w3.org/2000/svg">
<path d="M1.21826 13C0.893262 13 0.608887 12.8781 0.365137 12.6344C0.121387 12.3906 -0.000488281 12.1062 -0.000488281 11.7812V1.21875C-0.000488281 0.89375 0.121387 0.609375 0.365137 0.365625C0.608887 0.121875 0.893262 0 1.21826 0H11.7808C12.1058 0 12.3901 0.121875 12.6339 0.365625C12.8776 0.609375 12.9995 0.89375 12.9995 1.21875V5.58594L16.2495 2.33594V10.6641L12.9995 7.41406V11.7812C12.9995 12.1062 12.8776 12.3906 12.6339 12.6344C12.3901 12.8781 12.1058 13 11.7808 13H1.21826Z" fill="white"/>
</svg>
